<svg xmlns="http://www.w3.org/2000/svg" viewBox="0 0 400 400">
  <!-- Background Circle -->
  <circle cx="200" cy="200" r="190" fill="#f9f2ea" stroke="#e8a878" stroke-width="4"/>
  
  <!-- Hair -->
  <path d="M120 180 C100 120 150 80 200 80 C250 80 300 120 280 180 C270 200 260 220 250 240 C240 255 220 265 200 265 C180 265 160 255 150 240 C140 220 130 200 120 180 Z" fill="#1a1a1a"/>
  
  <!-- Face -->
  <ellipse cx="200" cy="180" rx="60" ry="80" fill="#daa17a"/>
  
  <!-- Eyes -->
  <ellipse cx="175" cy="165" rx="10" ry="8" fill="#402211"/>
  <ellipse cx="225" cy="165" rx="10" ry="8" fill="#402211"/>
  
  <!-- Eyebrows -->
  <path d="M165 152 C175 147 185 147 195 152" fill="none" stroke="#1a1a1a" stroke-width="2" stroke-linecap="round"/>
  <path d="M205 152 C215 147 225 147 235 152" fill="none" stroke="#1a1a1a" stroke-width="2" stroke-linecap="round"/>
  
  <!-- Nose -->
  <path d="M200 170 L205 190 L195 190 Z" fill="#c28e69"/>
  
  <!-- Mouth -->
  <path d="M180 205 C190 215 210 215 220 205" fill="none" stroke="#8c3f3f" stroke-width="3" stroke-linecap="round"/>
  
  <!-- Bindi -->
  <circle cx="200" cy="145" r="4" fill="#b92e45"/>
  
  <!-- Earrings -->
  <circle cx="132" cy="180" r="8" fill="#ffd700"/>
  <circle cx="268" cy="180" r="8" fill="#ffd700"/>
  
  <!-- Necklace -->
  <path d="M150 240 C170 255 230 255 250 240" fill="none" stroke="#ffd700" stroke-width="4" stroke-linecap="round"/>
  
  <!-- Traditional Outfit Top (Sari/Salwar) -->
  <path d="M130 250 C160 280 240 280 270 250 C280 290 280 310 270 330 C240 350 160 350 130 330 C120 310 120 290 130 250 Z" fill="#e85a4f"/>
  
  <!-- Decorative Pattern on Outfit -->
  <path d="M150 270 C160 265 170 265 180 270 M220 270 C230 265 240 265 250 270" fill="none" stroke="#ffd700" stroke-width="2"/>
  
  <!-- Spoon Icon to indicate restaurant association -->
  <g transform="translate(310, 330) scale(0.6) rotate(-30)">
    <path d="M0 0 C10 10 20 10 20 40 C20 60 0 60 0 40 Z" fill="#c0c0c0" stroke="#808080" stroke-width="1"/>
  </g>
</svg>
